<?xml version="1.0" encoding="utf-8"?>
<!-- Generator: Adobe Illustrator 22.1.0, SVG Export Plug-In . SVG Version: 6.00 Build 0)  -->
<svg version="1.1" id="Layer_1" xmlns="http://www.w3.org/2000/svg" xmlns:xlink="http://www.w3.org/1999/xlink" x="0px" y="0px"
	 viewBox="0 0 465.5 443.9" style="enable-background:new 0 0 465.5 443.9;" xml:space="preserve">
<style type="text/css">
	.st0{fill:#4F4F4F;}
	.st1{fill:#666666;}
	.st2{fill:#777777;}
	.st3{fill:#282828;}
	.st4{fill:#3A3A3A;}
	.st5{fill:#5B5B5B;}
	.st6{fill:none;stroke:#000000;stroke-width:20;stroke-miterlimit:10;}
	.st7{font-family:'LifeSavers-Regular';}
	.st8{font-size:415.6907px;}
</style>
<path class="st0" d="M206.5,244.9c-38.7,27.3-3.8,51.9,12.5,84.5c-6.1-14.1-5.3-30.8-1.3-45.4c2.3-8.4,5.8-18,10.3-25.6
	c2.3-4,7.1-6.8,10.6-9.6c4.7-3.8,9.4-7.6,14-11.4c-8.8,1.5-16.5,4.1-25.4,4.2C220,241.6,212.8,240.4,206.5,244.9z"/>
<path class="st1" d="M115.9,115.1c-31.8,23.3-11,97.7,7.6,132.1c6.5,12,15.3,23.2,23.9,33.8c6.7,8.2,13.5,16.9,21.7,23.6
	c9.3,7.6,26.6,10.7,33,17.9c-2.4-1.9-2.8-2.7-1.2-2.3c-11.4-10.8-18.8-25.7-23.5-38.3c-11.6-30.7-22.5-57.8-36.5-89.6
	c-20.2-40.5-8.5-61.8-8.7-60.1C136.5,118.3,134.1,101.8,115.9,115.1L115.9,115.1z M132.5,115.6C130.9,116,132.2,115.7,132.5,115.6
	L132.5,115.6z"/>
<path class="st1" d="M343.2,200.2c-13.8,9.6-23.1,41.5-34.9,56.2c-6.6,8.2-19.3,15.7-20.2,27.7c-1.1,15.4,16.4,39,32.5,41.1
	c23,3.1,40.7-26.9,44.2-44.5C369.3,257.6,354.8,213.4,343.2,200.2L343.2,200.2z"/>
<path class="st2" d="M433.3,220c-19.7,13.6-18,53.9-31.6,73.8c-13.6,19.9-45.9,25.5-37,34c9,8.6,47.3,2.1,58.5-0.9
	c19-5.2,25.8-14.7,32.5-33.1c5.6-15.3,14.4-37.8,6.9-55.8C458.3,227.7,444.5,212.2,433.3,220L433.3,220z"/>
<path class="st1" d="M414.8,232.1c-7,26.4-22.1,56.7-36.2,63.8c16.1-27.1-17-77.4-19.4-101c-2.2-22,7.8-42.5,24.4-54.2
	c6.1-4.3,18.9,7.2,25.1,7.3c6.2,0.1,1.8,0,5.8,0c0,0-0.7,10.2,0.1,16.2C418.6,191.8,421.5,206.7,414.8,232.1z"/>
<path class="st2" d="M90.9,245.6c-1,7.8-1.6,15.6-1.5,23.4c0.1,16.7,3.5,33.5,6.8,49.9c4.8,23.4-4.9,46.3-4.9,46.3
	s25.6-3.3,38.3,1.9c27,11,35,24.2,58,28.6c17.3,3.3,34.2,3.2,50.7,2.2c26-1.6,34.3-6.4,59,0.4c-19.5-10.4-35-25.2-53.9-38
	c-23.9-16.3-52.1-33.7-71.1-39c-1.7-0.5-3.3-1.3-4.9-2.2c-8.5-4.7-15.6-12.2-22.2-19.2c-7.7-8.2-15.4-16.8-20.8-26.5
	c-2.7-4.9-6.7-9.1-9.5-14c-2.9-5-5.4-10.3-7.5-15.8c-2.2-5.5-4-11.1-5.7-16.7c-1.2-3.9-5.2-12.4-4.4-16.4
	C94.7,222.1,92.4,233.8,90.9,245.6z"/>
<path class="st3" d="M217.8,122.2c-16.1,18.5,16.9,48.6,36.3,43.7c14.6-3.7,7.7-20.4,7.7-20.4s-1.4,8.8-10.2,11.1
	c-13.8,3.5-27.7-6.2-23.6-20.7c11.8-41.6,80.6,1.1,78.9,41.9C342.3,127.6,247.1,88.4,217.8,122.2L217.8,122.2z"/>
<path class="st4" d="M193.5,131.2c-34.8,28.3,8.8,91.3,52.3,94.9c28.6,0.8,58.5-42.1,58.7-45.1c-27,13.4-40,18.5-60.6,13.4
	c-25.5-6.4-54.1-37.9-41.3-65.3c0.5-1.5,0.5-1.5,0.8-2.6C199.5,127.1,196.4,129.1,193.5,131.2L193.5,131.2z M195.7,131.6
	C192.6,130.4,197.6,132.3,195.7,131.6L195.7,131.6z"/>
<path class="st0" d="M142.2,138.8c-26.8,19.5,42.4,103,41.9,124.5c1.6-7.5,3.6-16.5,11.6-22.5s23-8.5,23.3-10.7
	c-0.2,1.1-35.4-30.8-38.9-36.3c-14-22-13-41.2-6.3-55.8C173,138.9,149.7,133.4,142.2,138.8L142.2,138.8z M171.7,138.4
	C171,137,171.7,137.9,171.7,138.4L171.7,138.4z"/>
<path class="st0" d="M192.6,48.1c-5.3,0.1-11,0.3-15.6,3.1c-0.4,0.3-0.9,0.6-1.3,0.9c-3.7,2.8-5.8,7-7.6,11.2
	c-3.5,7.8-7.8,15.2-12.7,22.2c-1.6,2.2-8.8,9.6-3,11c8.7,2.1,17.8,2.7,26.6,0.9c9.6-2,18.6-6.8,26.8-12c9.8-6.1,18.9-14.3,30.1-17.8
	c1.4-0.4,2.9-0.8,4.1-1.7c1.2-0.9,1.9-2.5,1.4-3.9c-0.3-0.6-0.8-1.1-1.3-1.6c-5.9-5.2-13.3-8.6-21.1-9.9
	C210.2,49.2,201.6,48,192.6,48.1z"/>
<path class="st0" d="M251.8,60.1c-1,1.1-1.9,2.2-2.9,3.4c0.7-0.6,1.6-0.8,2.6-0.8c7.4-0.7,15.2,0.7,22.5,2.1
	c7.3,1.4,14.5,3.5,21.4,6.4c10.6,4.5,20.4,9.9,28.9,17.7c7.8,7.2,15,15.2,20.5,24.2c4.5,7.4,8.2,15.2,9.4,23.9
	c0.7,4.7,0.9,9.5,0.6,14.3c-0.2,2.4-0.4,4.8-0.8,7.1c-0.2,1.4-1.5,5-1,6c0,0.1,4.7-4.6,5.1-5.1c1.6-1.9,3-4,4.4-6.1
	c13-20,10-43.9-2.1-63.6c-0.6-1-1.2-1.9-1.8-2.9c-1-1.5-2.1-3-3.1-4.4C342.1,65,322.2,51,300.4,47.5c-10.4-1.6-21-0.9-31.1,2.2
	C262.8,51.8,256.6,55.2,251.8,60.1z"/>
<path class="st5" d="M313.3,52.7C313.4,52.8,313.4,52.8,313.3,52.7L313.3,52.7z"/>
<path d="M131.6,83.9c9.3,66.1,64.3,32,91.4,20.9c30.9-12.7,84.6-14.6,100.6,34.1c19,58-48.7,86-74.6,116.7
	C230,278,217.3,305,236.6,337c22.4,37.1,67.3,63.6,111.3,59.5c44-4.1,89.7-42,98.4-73.3c-23.7,19.5-86.1,20.2-114.3,15.3
	c-28.7-5-63.9-24.5-61.6-59.7c1.7-25.4,32.5-39.3,47.4-55.9c11.5-12.7,20.6-26,24.7-44.3c9.8-44-14-91.6-63.4-102.8
	c-32.6-7.5-46.5,3.7-68.5,17.7c-20.2,12.9-60.7,29.8-75.3-4.7C134.6,87.2,132.2,84.7,131.6,83.9L131.6,83.9z M342.8,146.4
	C342.8,145.1,342.8,147,342.8,146.4L342.8,146.4z"/>
<path class="st3" d="M247.6,150c-10.1-2.9-13.8-19.1,7.7-17.6c11,0.8,25.5,13.8,24.1,29.2s-16.8,23.3-27.6,22.6
	c-10.8-0.7-18.3-4.7-22.1-8c30.2,5.1,44-3.4,44.6-16.5c0.6-13-9-22-17.6-22.2C242,137.3,243.9,146.3,247.6,150z"/>
<g>
	<line class="st6" x1="0" y1="433.9" x2="465.4" y2="434.8"/>
	<line class="st6" x1="0" y1="10" x2="465.4" y2="10"/>
</g>
<text transform="matrix(1.0858 0 0 1 -4 399.9921)" class="st7 st8">I</text>
</svg>
