<?xml version="1.0" encoding="utf-8"?>
<!-- Generator: Adobe Illustrator 21.0.0, SVG Export Plug-In . SVG Version: 6.00 Build 0)  -->
<svg version="1.1" id="Layer_1" xmlns="http://www.w3.org/2000/svg" xmlns:xlink="http://www.w3.org/1999/xlink" x="0px" y="0px"
	 viewBox="0 0 308.6 327.1" style="enable-background:new 0 0 308.6 327.1;" xml:space="preserve">
<style type="text/css">
	.st0{fill:#0D1A63;}
	.st1{fill:#FFFFFF;}
</style>
<g>
	<g>
		<g id="Shape_19_7_">
			<path class="st0" d="M163.8,131.3c5,4,6.2,11,7,17.4c0.7,5.3,1.4,10.7,2.2,16c0.9-5.4,1.4-10.9,1.3-16.5
				c5.6,9.9,5.6,21.9,5.4,33.2c0.8-4.9,1.6-9.7,2.4-14.6c1.2,3.1,2,6.4,2.3,9.8c1.7-0.8,3.9-0.8,5.5,0.2c-3.2,1.4-5.4,4.7-5.4,8.2
				c3.6-2.1,8.4-4.2,11.8-1.6c1.3,1,2.1,2.7,2.4,4.3c0.5,2.5-0.2,5.3-2.1,6.9c-1.9,1.6-5.3,1.5-6.7-0.6c-1.4-2.1,0.4-5.6,2.9-5.3
				c-3.2-1.1-6.8,1.2-8.4,4.2c-1.6,3-1.6,6.6-1.6,10c0,3.4-0.3,7.8-1.5,11.7c-1.1-13.5-6.5-26.8-13.9-37.2
				c-2.6-3.7-5.6-7.2-8.7-10.6c-11.6-12.8-26.8-27-37.3-40.7s-23.2-40.4-17.1-61.7c1.6,28.4,15.5,36.2,28.1,47.3
				c-2-3.2-4-6.4-6.1-9.6c4.7,1.4,7.8,5.8,10.5,9.9c1.8,2.8,3.6,5.6,5.4,8.3c-1.3-3.5-2.7-6.9-4-10.4c7.1,4.1,12.2,11.5,13.5,19.6
				c0.4-4.6-0.9-9.3-3.7-12.9c3.7,1.4,6.1,4.8,8.1,8.1c4.2,7.2,7.1,15.1,8.5,23.3C165.7,142.6,165.4,136.8,163.8,131.3z"/>
			<path class="st0" d="M177.9,281.6c-1.2,0.1-2.5,0-3.4,0.7c-0.8,0.6-1.3,1.9-2.3,1.7c-0.1-3-0.2-6-0.3-9c0-0.5,0-1,0.1-1.4
				c0.2-0.5,0.7-0.9,1.1-1.3c2.1-1.6,4.4-2.9,6.9-3.9c2.4-0.9,5.3-1.4,7.5-0.1c1.9,1.1,2.8,3.6,2.3,5.7c-0.8,2.8-3.6,4.4-6.2,5.6
				C181.8,280.6,179.9,281.5,177.9,281.6z"/>
			<path class="st0" d="M107.4,160c6.1,4.4,13.3,7.3,20.8,8.2c-11.2-3.7-20.6-12.5-25-23.4c2.3,3,5.4,5.4,8.9,6.9
				c-6.3-4.6-11-11.2-13.3-18.6c2.7,2.3,5.4,4.6,8.2,6.9c-8.4-9.9-11.3-29.1-11.8-42.1s1.1-24.9,2.7-30.7c0.7-2.3,6.1-18,18.7-19.1
				c7.2-0.6,16.9,4.1,17.5,12.3s-6.8,9.9-10.6,7.5c-3.8-2.3-4.4-7.8-7.7-10.8c-1.2-1.1-6.6-2.3-9.5,0.4c-3.8,3.6-5.1,11.8-5.3,13.5
				c-1.6,15.2,3.9,32.7,12.7,47.9c10.1,17.6,25.9,31,39.7,46c13.8,14.9,26.2,32.9,26.9,53.1l0,0.6c6.9-0.5,13.8-0.4,20.6-0.9
				c0.3,10.5,6.4,20.6,15.6,25.8c9.3,5.3,21.7,6.1,27.8,14.9c3.5,5.1,3.9,11.7,3.7,17.9c-0.4,9.1-2.6,19-9.7,24.8
				c-3.4,2.7-13.8,7.7-34.6,11.9c-15.5,3.3-30.8,2.7-46.6,1.3l-0.5-0.1c-21-3.1-30.5-8.1-34-10.6c-7.4-5.4-10.1-15.1-11-24.2
				c-0.6-6.2-0.6-12.8,2.7-18c5.6-9.1,18-10.6,27-16.4c8.8-5.7,14.4-16.1,14.1-26.7c6.9,0.1,13.8,0.2,20.7,0.2
				c0.3-8.1-4.8-16-12.2-19.2c-1.3-0.5-2.8-1-4-0.3c-1.2,0.6-1.7,2.7-0.5,3.4c3.4,1.9,2.1,7.9-1.6,8.9c-3.7,1-7.7-2.3-8.2-6.1
				c-0.6-3.8,1.6-7.6,4.5-10.1c-4.1-0.9-8.1-2.6-11.5-5c6.2,0.1,12.4,0.2,18.6,0.4c-12.3-5.3-28.5-2.5-37.3-12.5
				c6.4,0.9,12.9,0.9,19.3-0.1C129.2,178.5,115.2,171.5,107.4,160 M122.2,52c3.5,2.1,7,5,8.1,9c0.1,0.5,0.2,0.9,0.5,1.3
				c0.3,0.4,0.9,0.5,1.2,0.2c0.9-2.9-0.4-6.2-2.6-8.3s-5.3-3.1-8.3-3.7C120.9,51.2,121.6,51.7,122.2,52z"/>
		</g>
	</g>
	<g>
		<g>
			<path class="st0" d="M160,11.7C80.8,8.6,14,69.7,10.9,148.3s58.5,144.9,137.7,148s146-57.9,149.1-136.5S239.2,14.9,160,11.7z
				 M290.7,180c-9.9,72.9-77.4,123.8-150.9,113.9c-73.4-10-125-77.1-115.1-150C34.6,71.1,102.1,20.1,175.6,30S300.6,107.2,290.7,180
				z"/>
		</g>
	</g>
	<g>
		<g>
			<path class="st1" d="M150.3,260.9c0.4,0.1,0.8,0.1,1.2-0.1c0.4-0.1,0.7-0.2,1.1-0.3c0.2,0.3,0.4,0.6,0.4,0.9c0,0.3,0,0.6,0,1
				c0,0.3,0.1,0.7,0.3,1.3c0.2,0.6,0.4,1.1,0.6,1.7c0.2,0.6,0.4,1.1,0.6,1.5c0.2,0.4,0.3,0.7,0.3,0.7c-0.1,0.1-0.2,0.3-0.3,0.4
				c-0.4-0.2-0.8-0.4-1-0.8c-0.2-0.4-0.5-0.7-0.8-1c-0.1-0.2-0.5-0.6-1.1-1.1c-0.7-0.5-1.4-1.1-2.2-1.6c-0.8-0.6-1.6-1.1-2.4-1.5
				c-0.8-0.5-1.4-0.8-1.7-0.8c-1.2-0.3-2.3-0.2-3.3,0.2c-1,0.4-1.9,1-2.7,1.8c-0.8,0.8-1.5,1.6-2,2.6c-0.6,1-1,2-1.2,2.9
				c-0.3,1.3-0.6,2.6-0.6,4.1c-0.1,1.5,0,3,0.2,4.5c0.2,1.5,0.7,3.1,1.3,4.6c0.6,1.5,1.5,2.9,2.5,4.1c1.1,1.3,2.3,2.3,3.8,3.2
				c1.5,0.9,3.2,1.5,5.1,1.8c0.4,0.1,0.9,0.1,1.3,0.1c0.4,0,0.9-0.1,1.3-0.1c0.4-0.1,0.8-0.1,1.2-0.1c0.4,0,0.7,0,1,0
				c0.1,0,0.1,0,0.2,0.1c0.1,0.2,0.1,0.3,0.2,0.5c-0.3,0.6-0.9,1-1.8,1.4c-0.9,0.4-1.9,0.7-3,0.9c-1.1,0.2-2.2,0.3-3.3,0.3
				c-1.1,0-2-0.1-2.7-0.2c-3.1-0.6-5.7-1.8-7.6-3.5c-2-1.7-3.4-3.6-4.4-5.8c-0.9-2.2-1.4-4.4-1.5-6.7c0-2.3,0.3-4.5,0.9-6.5
				c0.5-1.6,1.3-3.2,2.3-4.8c1-1.6,2.3-2.9,3.7-4.1c1.4-1.2,3-2,4.7-2.6c1.7-0.6,3.6-0.6,5.5-0.2c0.7,0.2,1.3,0.4,1.9,0.7
				C149,260.6,149.7,260.8,150.3,260.9z"/>
			<path class="st1" d="M175.2,263c1.2,0,2.3,0.2,3.5,0.5c1.2,0.4,2.2,0.9,3.2,1.5c1,0.7,1.8,1.5,2.4,2.4c0.7,1,1,2,1.1,3.3
				c0.1,0.9-0.1,1.7-0.4,2.4c-0.3,0.7-0.8,1.3-1.4,1.9c-0.6,0.6-1.2,1.1-1.9,1.6c-0.7,0.5-1.4,1-2.1,1.4c-0.5,0.3-1,0.6-1.6,0.8
				c-0.6,0.2-1.2,0.4-1.7,0.8c0.5,0.6,0.9,1.1,1.5,1.6c0.5,0.5,1.1,1,1.6,1.5c0.5,0.5,1.1,1.1,1.6,1.6c0.5,0.6,1,1.2,1.5,1.9
				c0.9,1.3,1.7,2.8,2.3,4.3c0.6,1.5,1.3,3.1,2.1,4.6c0.8,1.5,1.6,2.9,2.7,4.2c1,1.3,2.4,2.4,4.1,3.3c0,0.1-0.1,0.1-0.2,0.2
				c-0.1,0.1-0.2,0.2-0.3,0.2c-1,0.1-2.1,0-3.1-0.3c-1-0.3-2-0.6-2.8-0.8c-1.7-0.5-3.1-1.5-4.3-2.7c-1.2-1.3-2.3-2.7-3.1-4.3
				c-0.9-1.6-1.7-3.3-2.3-5c-0.7-1.7-1.3-3.3-1.9-4.7c-0.6-1.4-1.3-2.6-2-3.5c-0.7-0.9-1.5-1.4-2.5-1.4c-0.2,0-0.7,0-1.3-0.1
				c-0.6,0-1.2,0-1.9,0c-0.6,0-1.2,0.1-1.7,0.2c-0.5,0.1-0.7,0.4-0.8,0.7c-0.1,1.9-0.2,3.7-0.3,5.6c0,0.4,0,0.9,0,1.5
				c0,0.5,0,1.1,0.1,1.7c0,0.6,0.1,1.1,0.2,1.6c0.1,0.5,0.2,1,0.4,1.5c0.2,0.5,0.4,0.8,0.7,1c0.3,0.2,0.6,0.4,0.9,0.6
				c0.3,0.1,0.6,0.2,0.8,0.3c0.2,0.1,0.4,0.2,0.5,0.3c0,0.1-0.1,0.3-0.3,0.4c-0.2,0.1-0.3,0.1-0.5,0.1c-1.7,0-3.5-0.1-5.3-0.3
				c-1.8-0.1-3.5-0.3-5.3-0.5c-0.3,0-0.5-0.1-0.8-0.2c-0.3-0.1-0.5-0.2-0.8-0.2c0-0.1,0-0.2,0-0.4c0.3-0.2,0.6-0.3,1-0.4
				c0.3-0.1,0.7-0.2,1-0.3c0.5-0.5,0.9-1.1,1.2-1.9c0.3-0.8,0.5-1.6,0.6-2.4c0.1-0.8,0.2-1.7,0.3-2.5c0.1-0.8,0.1-1.6,0.2-2.3
				c0.2-2.7,0.4-5.3,0.5-7.9c0.1-2.6,0.3-5.3,0.6-7.9c0.1-0.5,0-1.1-0.2-1.6c-0.2-0.6-0.5-1-1.1-1.3c-0.1-0.2-0.3-0.4-0.5-0.5
				c-0.2-0.1-0.4-0.3-0.6-0.4c0.1-0.1,0.5-0.3,1.3-0.4c0.8-0.1,1.7-0.2,2.8-0.3c1.1-0.1,2.3-0.2,3.6-0.3c1.3-0.1,2.6-0.2,3.7-0.4
				c1.2-0.1,2.2-0.2,3.1-0.3C174.3,263.1,174.9,263,175.2,263z M166.6,265.2c-0.2,0.2-0.3,0.5-0.3,0.8c-0.1,0.3-0.1,0.5-0.1,0.8
				c-0.1,1.8-0.2,3.6-0.2,5.5c0,1.8-0.1,3.6-0.2,5.4c0,0.1,0,0.3,0,0.4c0,0.2,0,0.3,0.1,0.5c0,0.2,0.1,0.3,0.2,0.4
				c0.1,0.1,0.2,0.2,0.4,0.2c0.1,0,0.2,0,0.3,0c1.3,0.2,2.7,0.2,4.3,0c1.6-0.2,3.1-0.6,4.5-1.1c1.4-0.6,2.5-1.4,3.4-2.4
				c0.9-1,1.3-2.2,1.2-3.6c-0.1-1.3-0.5-2.4-1.2-3.2c-0.8-0.9-1.7-1.6-2.8-2.2c-1.1-0.6-2.2-1-3.5-1.3c-1.3-0.3-2.4-0.5-3.5-0.5
				c-0.4,0-0.8,0-1.3,0.1C167.3,264.9,167,265.1,166.6,265.2z"/>
			<path class="st1" d="M212.3,257.4c1-0.3,1.8-0.2,2.4,0.2c0.6,0.4,1,1.1,1.3,1.9c0.4,1.1,0.5,2.3,0.4,3.4
				c-0.1,1.1-0.3,2.3-0.8,3.4c-0.4,1.1-1,2.2-1.8,3.2c-0.7,1-1.5,1.9-2.4,2.8c-0.3,0.3-0.6,0.6-0.9,0.9c-0.3,0.3-0.7,0.5-1,0.9
				c0.1,0.3,0.1,0.5,0.2,0.8c0.4,0.2,0.9,0.4,1.5,0.5c0.6,0.1,1.1,0.2,1.5,0.5c0.8,0.4,1.6,0.9,2.5,1.5c0.8,0.6,1.6,1.2,2.3,1.7
				c0.9,0.7,1.7,1.5,2.5,2.4c0.8,0.9,1.6,1.9,2.3,2.9c0.8,1,1.6,2,2.4,3c0.8,1,1.7,1.9,2.6,2.6c0.9,0.7,2,1.3,3.1,1.8
				c1.1,0.4,2.4,0.6,3.8,0.6c0,0.3-0.2,0.5-0.6,0.7c-2,0.7-3.9,1-5.7,0.9c-1.7-0.1-3.4-0.6-4.9-1.2c-1.5-0.7-2.9-1.6-4.1-2.7
				c-1.2-1.1-2.4-2.3-3.4-3.5c-1-1.2-2-2.5-2.9-3.7c-0.9-1.2-1.7-2.3-2.4-3.3c-0.8-0.9-1.5-1.7-2.2-2.2c-0.7-0.5-1.4-0.7-2.1-0.6
				c-0.2,0-0.5,0.2-1,0.4c-0.5,0.2-1,0.5-1.6,0.8c-0.5,0.3-1,0.6-1.5,0.8c-0.4,0.3-0.7,0.5-0.7,0.6c0.3,0.8,0.5,1.8,0.7,2.9
				c0.2,1.1,0.3,2.2,0.5,3.3c0.2,1.1,0.4,2.2,0.7,3.3c0.3,1.1,0.8,2,1.4,2.9c0.3,0.5,0.8,0.7,1.5,0.7c0.6,0,1.2,0.1,1.8,0.3
				c-0.2,0.2-0.8,0.4-1.7,0.6c-1,0.2-2,0.4-3.1,0.6c-1.1,0.2-2.2,0.3-3.3,0.5c-1.1,0.1-1.8,0.2-2.3,0.3c-0.3,0-0.6,0.1-0.9,0.3
				c-0.3,0.1-0.6,0.2-0.9,0.3c-0.2,0-0.3,0-0.6,0c0-0.2,0-0.4-0.1-0.5c0.3-0.2,0.7-0.4,1.1-0.5c0.4-0.1,0.8-0.3,1.1-0.6
				c0.4-0.3,0.6-0.7,0.7-1.2c0.1-0.5,0.2-1,0.2-1.6c0-0.6-0.1-1.1-0.2-1.7c-0.1-0.5-0.2-1-0.2-1.4c-0.4-2.4-0.7-4.7-1.1-7.1
				c-0.3-2.1-0.7-4.2-1.1-6.3c-0.4-2.1-0.7-4.2-1-6.3c-0.1-0.7-0.2-1.2-0.4-1.6c-0.2-0.4-0.4-0.7-0.6-1c-0.3-0.2-0.6-0.5-1-0.6
				c-0.4-0.2-0.9-0.4-1.5-0.6c0-0.1,0-0.1-0.1-0.2c0-0.1,0.1-0.2,0.2-0.3c0.1-0.1,0.3-0.2,0.5-0.2c0.2-0.1,0.4-0.1,0.6-0.2
				c0.2,0,0.3-0.1,0.4-0.1c0.3,0,0.9-0.1,1.8-0.2c0.9-0.1,1.9-0.3,2.9-0.4c1-0.2,1.9-0.3,2.7-0.4c0.8-0.1,1.3-0.1,1.4,0
				c-0.2,0.2-0.3,0.4-0.6,0.5c-0.2,0.2-0.4,0.3-0.7,0.5c-0.2,0.2-0.4,0.4-0.6,0.5c-0.2,0.2-0.3,0.4-0.4,0.7
				c-0.2,0.7-0.2,1.5-0.1,2.6c0.1,1.1,0.2,2.2,0.4,3.4c0.2,1.2,0.4,2.4,0.7,3.5c0.2,1.1,0.4,2.1,0.6,2.8c0.3,0.3,0.6,0.4,1,0.3
				c0.3-0.1,0.6-0.2,1-0.4c0.4-0.2,0.7-0.4,1.1-0.6c0.4-0.2,0.7-0.5,1.1-0.7c0.3-0.3,0.6-0.5,0.9-0.6c0.9-0.6,1.7-1.2,2.5-1.9
				c0.8-0.7,1.4-1.4,1.9-2.2c0.5-0.8,0.9-1.6,1-2.5c0.2-0.9,0.1-1.9-0.2-2.9c-0.1-0.5-0.3-0.9-0.5-1.3c-0.2-0.4-0.4-0.8-0.5-1.3
				c-0.3-1.1-0.3-2,0.1-3C210.5,258.3,211.2,257.7,212.3,257.4z"/>
		</g>
	</g>
</g>
</svg>
